<?xml version="1.0" encoding="UTF-8"?>
<svg width="480px" height="270px" viewBox="0 0 480 270" version="1.1" xmlns="http://www.w3.org/2000/svg" xmlns:xlink="http://www.w3.org/1999/xlink">
    <!-- Generator: Sketch 49.3 (51167) - http://www.bohemiancoding.com/sketch -->
    <title>asset_fallback</title>
    <desc>Created with Sketch.</desc>
    <defs></defs>
    <g id="1.-Desktop" stroke="none" stroke-width="1" fill="none" fill-rule="evenodd">
        <g id="Tablet" transform="translate(-39.000000, -40.000000)">
            <g id="asset_fallback" transform="translate(39.000000, 40.000000)">
                <rect id="Rectangle-6" fill="#D8D8D8" x="0" y="0" width="480" height="270"></rect>
                <path d="M240,255 C173.72583,255 120,201.27417 120,135 C120,68.72583 173.72583,15 240,15 C306.27417,15 360,68.72583 360,135 C360,201.27417 306.27417,255 240,255 Z M240,235 C295.228475,235 340,190.228475 340,135 C340,79.771525 295.228475,35 240,35 C184.771525,35 140,79.771525 140,135 C140,190.228475 184.771525,235 240,235 Z" id="Combined-Shape" fill="#FFFFFF"></path>
            </g>
        </g>
    </g>
</svg>