<?xml version="1.0" encoding="UTF-8"?>
<svg width="134px" height="23px" viewBox="0 0 134 23" version="1.1" xmlns="http://www.w3.org/2000/svg" xmlns:xlink="http://www.w3.org/1999/xlink">
    <!-- Generator: Sketch 49.3 (51167) - http://www.bohemiancoding.com/sketch -->
    <title>Logo</title>
    <desc>Created with Sketch.</desc>
    <defs></defs>
    <g id="Symbols" stroke="none" stroke-width="1" fill="none" fill-rule="evenodd">
        <g id="Component-/-Footer" transform="translate(-38.000000, -46.000000)">
            <g id="Logo">
                <g transform="translate(38.000000, 46.000000)">
                    <path d="M13.848,13.908 C14.0240009,13.908 14.1799993,13.9759993 14.316,14.112 L15.588,15.492 C14.8839965,16.3640044 14.0180051,17.0319977 12.99,17.496 C11.9619949,17.9600023 10.7280072,18.192 9.288,18.192 C7.99999356,18.192 6.84200514,17.9720022 5.814,17.532 C4.78599486,17.0919978 3.90800364,16.4800039 3.18,15.696 C2.45199636,14.9119961 1.89400194,13.9760054 1.506,12.888 C1.11799806,11.7999946 0.924,10.6120064 0.924,9.324 C0.924,8.01999348 1.13199792,6.82600542 1.548,5.742 C1.96400208,4.65799458 2.54999622,3.72400392 3.306,2.94 C4.06200378,2.15599608 4.96399476,1.54600218 6.012,1.11 C7.06000524,0.67399782 8.21999364,0.456 9.492,0.456 C10.7560063,0.456 11.8779951,0.66399792 12.858,1.08 C13.8380049,1.49600208 14.6719966,2.03999664 15.36,2.712 L14.28,4.212 C14.2159997,4.30800048 14.1340005,4.39199964 14.034,4.464 C13.9339995,4.53600036 13.7960009,4.572 13.62,4.572 C13.4999994,4.572 13.3760006,4.53800034 13.248,4.47 C13.1199994,4.40199966 12.9800008,4.3180005 12.828,4.218 C12.6759992,4.1179995 12.500001,4.0080006 12.3,3.888 C12.099999,3.7679994 11.8680013,3.6580005 11.604,3.558 C11.3399987,3.4579995 11.0340017,3.37400034 10.686,3.306 C10.3379983,3.23799966 9.93600228,3.204 9.48,3.204 C8.70399612,3.204 7.99400322,3.34199862 7.35,3.618 C6.70599678,3.89400138 6.15200232,4.29399738 5.688,4.818 C5.22399768,5.34200262 4.86400128,5.98199622 4.608,6.738 C4.35199872,7.49400378 4.224,8.35599516 4.224,9.324 C4.224,10.3000049 4.36199862,11.1679962 4.638,11.928 C4.91400138,12.6880038 5.28799764,13.3279974 5.76,13.848 C6.23200236,14.3680026 6.7879968,14.7659986 7.428,15.042 C8.0680032,15.3180014 8.75599632,15.456 9.492,15.456 C9.9320022,15.456 10.3299982,15.4320002 10.686,15.384 C11.0420018,15.3359998 11.3699985,15.2600005 11.67,15.156 C11.9700015,15.0519995 12.2539987,14.9180008 12.522,14.754 C12.7900013,14.5899992 13.0559987,14.3880012 13.32,14.148 C13.4000004,14.0759996 13.4839996,14.0180002 13.572,13.974 C13.6600004,13.9299998 13.7519995,13.908 13.848,13.908 Z M22.1667692,5.496 C23.0787738,5.496 23.9087655,5.64399852 24.6567692,5.94 C25.404773,6.23600148 26.0447666,6.65599728 26.5767692,7.2 C27.1087719,7.74400272 27.5187678,8.40799608 27.8067692,9.192 C28.0947707,9.97600392 28.2387692,10.8519952 28.2387692,11.82 C28.2387692,12.7960049 28.0947707,13.6759961 27.8067692,14.46 C27.5187678,15.2440039 27.1087719,15.9119972 26.5767692,16.464 C26.0447666,17.0160028 25.404773,17.4399985 24.6567692,17.736 C23.9087655,18.0320015 23.0787738,18.18 22.1667692,18.18 C21.2467646,18.18 20.410773,18.0320015 19.6587692,17.736 C18.9067655,17.4399985 18.2647719,17.0160028 17.7327692,16.464 C17.2007666,15.9119972 16.7887707,15.2440039 16.4967692,14.46 C16.2047678,13.6759961 16.0587692,12.7960049 16.0587692,11.82 C16.0587692,10.8519952 16.2047678,9.97600392 16.4967692,9.192 C16.7887707,8.40799608 17.2007666,7.74400272 17.7327692,7.2 C18.2647719,6.65599728 18.9067655,6.23600148 19.6587692,5.94 C20.410773,5.64399852 21.2467646,5.496 22.1667692,5.496 Z M22.1667692,15.9 C23.1907743,15.9 23.9487668,15.5560034 24.4407692,14.868 C24.9327717,14.1799966 25.1787692,13.1720066 25.1787692,11.844 C25.1787692,10.5159934 24.9327717,9.50400348 24.4407692,8.808 C23.9487668,8.11199652 23.1907743,7.764 22.1667692,7.764 C21.126764,7.764 20.3567717,8.1139965 19.8567692,8.814 C19.3567667,9.5140035 19.1067692,10.5239934 19.1067692,11.844 C19.1067692,13.1640066 19.3567667,14.1699965 19.8567692,14.862 C20.3567717,15.5540035 21.126764,15.9 22.1667692,15.9 Z M32.9095384,7.2 C33.1575397,6.95199876 33.4195371,6.72200106 33.6955384,6.51 C33.9715398,6.29799894 34.2635369,6.11800074 34.5715384,5.97 C34.87954,5.82199926 35.2095367,5.70600042 35.5615384,5.622 C35.9135402,5.53799958 36.2975364,5.496 36.7135384,5.496 C37.3855418,5.496 37.9815358,5.60999886 38.5015384,5.838 C39.021541,6.06600114 39.4555367,6.38599794 39.8035384,6.798 C40.1515402,7.21000206 40.4155375,7.70199714 40.5955384,8.274 C40.7755393,8.84600286 40.8655384,9.47599656 40.8655384,10.164 L40.8655384,18 L37.9015384,18 L37.9015384,10.164 C37.9015384,9.41199624 37.7295402,8.83000206 37.3855384,8.418 C37.0415367,8.00599794 36.517542,7.8 35.8135384,7.8 C35.3015359,7.8 34.8215407,7.91599884 34.3735384,8.148 C33.9255362,8.38000116 33.5015404,8.695998 33.1015384,9.096 L33.1015384,18 L30.1375384,18 L30.1375384,5.688 L31.9495384,5.688 C32.3335404,5.688 32.5855378,5.8679982 32.7055384,6.228 L32.9095384,7.2 Z M50.8163077,8.088 C50.7363073,8.21600064 50.6523081,8.30599974 50.5643077,8.358 C50.4763072,8.41000026 50.3643083,8.436 50.2283077,8.436 C50.0843069,8.436 49.9303085,8.3960004 49.7663077,8.316 C49.6023068,8.2359996 49.4123087,8.1460005 49.1963077,8.046 C48.9803066,7.9459995 48.734309,7.8560004 48.4583077,7.776 C48.1823063,7.6959996 47.8563095,7.656 47.4803077,7.656 C46.8963047,7.656 46.4383093,7.77999876 46.1063077,8.028 C45.774306,8.27600124 45.6083077,8.599998 45.6083077,9 C45.6083077,9.26400132 45.6943068,9.4859991 45.8663077,9.666 C46.0383085,9.8460009 46.2663062,10.0039993 46.5503077,10.14 C46.8343091,10.2760007 47.1563059,10.3979995 47.5163077,10.506 C47.8763095,10.6140005 48.2423058,10.7319994 48.6143077,10.86 C48.9863095,10.9880006 49.3523059,11.1339992 49.7123077,11.298 C50.0723095,11.4620008 50.3943062,11.6699987 50.6783077,11.922 C50.9623091,12.1740013 51.1903068,12.4759982 51.3623077,12.828 C51.5343085,13.1800018 51.6203077,13.6039975 51.6203077,14.1 C51.6203077,14.692003 51.5143087,15.2379975 51.3023077,15.738 C51.0903066,16.2380025 50.7763097,16.6699982 50.3603077,17.034 C49.9443056,17.3980018 49.4303107,17.681999 48.8183077,17.886 C48.2063046,18.090001 47.5003117,18.192 46.7003077,18.192 C46.2763055,18.192 45.8623097,18.1540004 45.4583077,18.078 C45.0543056,18.0019996 44.6663095,17.8960007 44.2943077,17.76 C43.9223058,17.6239993 43.5783092,17.4640009 43.2623077,17.28 C42.9463061,17.0959991 42.6683089,16.8960011 42.4283077,16.68 L43.1123077,15.552 C43.2003081,15.4159993 43.3043071,15.3120004 43.4243077,15.24 C43.5443083,15.1679996 43.6963067,15.132 43.8803077,15.132 C44.0643086,15.132 44.2383068,15.1839995 44.4023077,15.288 C44.5663085,15.3920005 44.7563066,15.5039994 44.9723077,15.624 C45.1883087,15.7440006 45.4423062,15.8559995 45.7343077,15.96 C46.0263091,16.0640005 46.3963054,16.116 46.8443077,16.116 C47.1963094,16.116 47.4983064,16.0740004 47.7503077,15.99 C48.0023089,15.9059996 48.2103068,15.7960007 48.3743077,15.66 C48.5383085,15.5239993 48.6583073,15.3660009 48.7343077,15.186 C48.810308,15.0059991 48.8483077,14.820001 48.8483077,14.628 C48.8483077,14.3399986 48.7623085,14.1040009 48.5903077,13.92 C48.4183068,13.7359991 48.1903091,13.5760007 47.9063077,13.44 C47.6223062,13.3039993 47.2983095,13.1820005 46.9343077,13.074 C46.5703058,12.9659995 46.1983096,12.8480006 45.8183077,12.72 C45.4383058,12.5919994 45.0663095,12.4420009 44.7023077,12.27 C44.3383058,12.0979991 44.0143091,11.8800013 43.7303077,11.616 C43.4463062,11.3519987 43.2183085,11.0280019 43.0463077,10.644 C42.8743068,10.2599981 42.7883077,9.79600272 42.7883077,9.252 C42.7883077,8.74799748 42.8883067,8.26800228 43.0883077,7.812 C43.2883087,7.35599772 43.5823057,6.9580017 43.9703077,6.618 C44.3583096,6.2779983 44.8423048,6.00600102 45.4223077,5.802 C46.0023106,5.59799898 46.6723039,5.496 47.4323077,5.496 C48.2803119,5.496 49.0523042,5.6359986 49.7483077,5.916 C50.4443111,6.1960014 51.0243053,6.56399772 51.4883077,7.02 L50.8163077,8.088 Z M58.9310769,5.496 C59.8430815,5.496 60.6730732,5.64399852 61.4210769,5.94 C62.1690806,6.23600148 62.8090742,6.65599728 63.3410769,7.2 C63.8730796,7.74400272 64.2830755,8.40799608 64.5710769,9.192 C64.8590783,9.97600392 65.0030769,10.8519952 65.0030769,11.82 C65.0030769,12.7960049 64.8590783,13.6759961 64.5710769,14.46 C64.2830755,15.2440039 63.8730796,15.9119972 63.3410769,16.464 C62.8090742,17.0160028 62.1690806,17.4399985 61.4210769,17.736 C60.6730732,18.0320015 59.8430815,18.18 58.9310769,18.18 C58.0110723,18.18 57.1750807,18.0320015 56.4230769,17.736 C55.6710731,17.4399985 55.0290796,17.0160028 54.4970769,16.464 C53.9650742,15.9119972 53.5530784,15.2440039 53.2610769,14.46 C52.9690754,13.6759961 52.8230769,12.7960049 52.8230769,11.82 C52.8230769,10.8519952 52.9690754,9.97600392 53.2610769,9.192 C53.5530784,8.40799608 53.9650742,7.74400272 54.4970769,7.2 C55.0290796,6.65599728 55.6710731,6.23600148 56.4230769,5.94 C57.1750807,5.64399852 58.0110723,5.496 58.9310769,5.496 Z M58.9310769,15.9 C59.955082,15.9 60.7130744,15.5560034 61.2050769,14.868 C61.6970794,14.1799966 61.9430769,13.1720066 61.9430769,11.844 C61.9430769,10.5159934 61.6970794,9.50400348 61.2050769,8.808 C60.7130744,8.11199652 59.955082,7.764 58.9310769,7.764 C57.8910717,7.764 57.1210794,8.1139965 56.6210769,8.814 C56.1210744,9.5140035 55.8710769,10.5239934 55.8710769,11.844 C55.8710769,13.1640066 56.1210744,14.1699965 56.6210769,14.862 C57.1210794,15.5540035 57.8910717,15.9 58.9310769,15.9 Z M69.9018461,0.168 L69.9018461,18 L66.9378461,18 L66.9378461,0.168 L69.9018461,0.168 Z M80.4286153,10.428 C80.4286153,10.0439981 80.3746159,9.6820017 80.2666153,9.342 C80.1586148,9.0019983 79.9966164,8.70400128 79.7806153,8.448 C79.5646143,8.19199872 79.290617,7.99000074 78.9586153,7.842 C78.6266137,7.69399926 78.2406175,7.62 77.8006153,7.62 C76.9446111,7.62 76.2706178,7.86399756 75.7786153,8.352 C75.2866129,8.84000244 74.972616,9.53199552 74.8366153,10.428 L80.4286153,10.428 Z M74.7766153,12.216 C74.8246156,12.8480032 74.9366145,13.3939977 75.1126153,13.854 C75.2886162,14.3140023 75.5206139,14.6939985 75.8086153,14.994 C76.0966168,15.2940015 76.4386134,15.5179993 76.8346153,15.666 C77.2306173,15.8140007 77.6686129,15.888 78.1486153,15.888 C78.6286177,15.888 79.0426136,15.8320006 79.3906153,15.72 C79.7386171,15.6079994 80.042614,15.4840007 80.3026153,15.348 C80.5626166,15.2119993 80.7906144,15.0880006 80.9866153,14.976 C81.1826163,14.8639994 81.3726144,14.808 81.5566153,14.808 C81.8046166,14.808 81.9886147,14.8999991 82.1086153,15.084 L82.9606153,16.164 C82.6326137,16.5480019 82.2646174,16.8699987 81.8566153,17.13 C81.4486133,17.3900013 81.0226176,17.5979992 80.5786153,17.754 C80.1346131,17.9100008 79.6826176,18.0199997 79.2226153,18.084 C78.762613,18.1480003 78.3166175,18.18 77.8846153,18.18 C77.0286111,18.18 76.232619,18.0380014 75.4966153,17.754 C74.7606117,17.4699986 74.1206181,17.0500028 73.5766153,16.494 C73.0326126,15.9379972 72.6046169,15.2500041 72.2926153,14.43 C71.9806138,13.6099959 71.8246153,12.6600054 71.8246153,11.58 C71.8246153,10.7399958 71.960614,9.9500037 72.2326153,9.21 C72.5046167,8.4699963 72.8946128,7.82600274 73.4026153,7.278 C73.9106179,6.72999726 74.5306117,6.2960016 75.2626153,5.976 C75.994619,5.6559984 76.8206107,5.496 77.7406153,5.496 C78.5166192,5.496 79.2326121,5.61999876 79.8886153,5.868 C80.5446186,6.11600124 81.108613,6.47799762 81.5806153,6.954 C82.0526177,7.43000238 82.422614,8.01399654 82.6906153,8.706 C82.9586167,9.39800346 83.0926153,10.1879956 83.0926153,11.076 C83.0926153,11.5240022 83.0446158,11.8259992 82.9486153,11.982 C82.8526149,12.1380008 82.6686167,12.216 82.3966153,12.216 L74.7766153,12.216 Z M93.3701538,14.808 C93.7061555,15.216002 94.0721518,15.5039992 94.4681538,15.672 C94.8641558,15.8400008 95.2821516,15.924 95.7221538,15.924 C96.1781561,15.924 96.588152,15.8420008 96.9521538,15.678 C97.3161556,15.5139992 97.6261525,15.2580017 97.8821538,14.91 C98.1381551,14.5619983 98.3341531,14.1180027 98.4701538,13.578 C98.6061545,13.0379973 98.6741538,12.3920038 98.6741538,11.64 C98.6741538,10.2879932 98.450156,9.31000302 98.0021538,8.706 C97.5541515,8.10199698 96.910158,7.8 96.0701538,7.8 C95.5021509,7.8 95.0061559,7.9299987 94.5821538,8.19 C94.1581517,8.4500013 93.7541557,8.81599764 93.3701538,9.288 L93.3701538,14.808 Z M93.3701538,7.2 C93.8661563,6.6799974 94.4161508,6.26600154 95.0201538,5.958 C95.6241568,5.64999846 96.3141499,5.496 97.0901538,5.496 C97.8021573,5.496 98.4441509,5.6359986 99.0161538,5.916 C99.5881566,6.1960014 100.076152,6.59799738 100.480154,7.122 C100.884156,7.64600262 101.194153,8.27999628 101.410154,9.024 C101.626155,9.76800372 101.734154,10.6039954 101.734154,11.532 C101.734154,12.532005 101.610155,13.4399959 101.362154,14.256 C101.114153,15.0720041 100.760156,15.7699971 100.300154,16.35 C99.8401515,16.9300029 99.286157,17.3799984 98.6381538,17.7 C97.9901505,18.0200016 97.2701577,18.18 96.4781538,18.18 C96.0941519,18.18 95.7461553,18.1420004 95.4341538,18.066 C95.1221522,17.9899996 94.8341551,17.8840007 94.5701538,17.748 C94.3061525,17.6119993 94.0641549,17.446001 93.8441538,17.25 C93.6241527,17.053999 93.4141548,16.8360012 93.2141538,16.596 L93.0821538,17.424 C93.0341535,17.632001 92.9521544,17.7799996 92.8361538,17.868 C92.7201532,17.9560004 92.5621548,18 92.3621538,18 L90.4061538,18 L90.4061538,0.168 L93.3701538,0.168 L93.3701538,7.2 Z M106.656923,0.168 L106.656923,18 L103.692923,18 L103.692923,0.168 L106.656923,0.168 Z M114.699692,5.496 C115.611697,5.496 116.441688,5.64399852 117.189692,5.94 C117.937696,6.23600148 118.57769,6.65599728 119.109692,7.2 C119.641695,7.74400272 120.051691,8.40799608 120.339692,9.192 C120.627694,9.97600392 120.771692,10.8519952 120.771692,11.82 C120.771692,12.7960049 120.627694,13.6759961 120.339692,14.46 C120.051691,15.2440039 119.641695,15.9119972 119.109692,16.464 C118.57769,17.0160028 117.937696,17.4399985 117.189692,17.736 C116.441688,18.0320015 115.611697,18.18 114.699692,18.18 C113.779688,18.18 112.943696,18.0320015 112.191692,17.736 C111.439688,17.4399985 110.797695,17.0160028 110.265692,16.464 C109.73369,15.9119972 109.321694,15.2440039 109.029692,14.46 C108.737691,13.6759961 108.591692,12.7960049 108.591692,11.82 C108.591692,10.8519952 108.737691,9.97600392 109.029692,9.192 C109.321694,8.40799608 109.73369,7.74400272 110.265692,7.2 C110.797695,6.65599728 111.439688,6.23600148 112.191692,5.94 C112.943696,5.64399852 113.779688,5.496 114.699692,5.496 Z M114.699692,15.9 C115.723697,15.9 116.48169,15.5560034 116.973692,14.868 C117.465695,14.1799966 117.711692,13.1720066 117.711692,11.844 C117.711692,10.5159934 117.465695,9.50400348 116.973692,8.808 C116.48169,8.11199652 115.723697,7.764 114.699692,7.764 C113.659687,7.764 112.889695,8.1139965 112.389692,8.814 C111.88969,9.5140035 111.639692,10.5239934 111.639692,11.844 C111.639692,13.1640066 111.88969,14.1699965 112.389692,14.862 C112.889695,15.5540035 113.659687,15.9 114.699692,15.9 Z M127.074461,11.544 C127.442463,11.544 127.76246,11.4940005 128.034461,11.394 C128.306463,11.2939995 128.532461,11.1560009 128.712461,10.98 C128.892462,10.8039991 129.028461,10.5920012 129.120461,10.344 C129.212462,10.0959988 129.258461,9.82400148 129.258461,9.528 C129.258461,8.91999696 129.076463,8.43800178 128.712461,8.082 C128.34846,7.72599822 127.802465,7.548 127.074461,7.548 C126.346458,7.548 125.800463,7.72599822 125.436461,8.082 C125.07246,8.43800178 124.890461,8.91999696 124.890461,9.528 C124.890461,9.81600144 124.936461,10.0839988 125.028461,10.332 C125.120462,10.5800012 125.256461,10.7939991 125.436461,10.974 C125.616462,11.1540009 125.84446,11.2939995 126.120461,11.394 C126.396463,11.4940005 126.71446,11.544 127.074461,11.544 Z M130.422461,18.552 C130.422461,18.3119988 130.350462,18.1160008 130.206461,17.964 C130.062461,17.8119992 129.866463,17.6940004 129.618461,17.61 C129.37046,17.5259996 129.080463,17.4640002 128.748461,17.424 C128.41646,17.3839998 128.064463,17.3540001 127.692461,17.334 C127.32046,17.3139999 126.936463,17.2960001 126.540461,17.28 C126.144459,17.2639999 125.758463,17.2320002 125.382461,17.184 C125.05446,17.3680009 124.788462,17.5839988 124.584461,17.832 C124.38046,18.0800012 124.278461,18.3679984 124.278461,18.696 C124.278461,18.9120011 124.332461,19.1139991 124.440461,19.302 C124.548462,19.4900009 124.72046,19.6519993 124.956461,19.788 C125.192463,19.9240007 125.49846,20.0299996 125.874461,20.106 C126.250463,20.1820004 126.710459,20.22 127.254461,20.22 C127.806464,20.22 128.282459,20.1780004 128.682461,20.094 C129.082463,20.0099996 129.41246,19.8940007 129.672461,19.746 C129.932463,19.5979993 130.122461,19.422001 130.242461,19.218 C130.362462,19.013999 130.422461,18.7920012 130.422461,18.552 Z M133.374461,6.108 L133.374461,7.212 C133.374461,7.56400176 133.162464,7.7799996 132.738461,7.86 L131.634461,8.064 C131.802462,8.48800212 131.886461,8.95199748 131.886461,9.456 C131.886461,10.064003 131.764463,10.6139975 131.520461,11.106 C131.27646,11.5980025 130.938464,12.0159983 130.506461,12.36 C130.074459,12.7040017 129.564464,12.9699991 128.976461,13.158 C128.388459,13.3460009 127.754465,13.44 127.074461,13.44 C126.83446,13.44 126.602463,13.4280001 126.378461,13.404 C126.15446,13.3799999 125.934463,13.3480002 125.718461,13.308 C125.33446,13.5400012 125.142461,13.7999986 125.142461,14.088 C125.142461,14.3360012 125.25646,14.5179994 125.484461,14.634 C125.712463,14.7500006 126.01446,14.8319998 126.390461,14.88 C126.766463,14.9280002 127.194459,14.9579999 127.674461,14.97 C128.154464,14.9820001 128.646459,15.0079998 129.150461,15.048 C129.654464,15.0880002 130.146459,15.1579995 130.626461,15.258 C131.106464,15.3580005 131.53446,15.5159989 131.910461,15.732 C132.286463,15.9480011 132.58846,16.2419981 132.816461,16.614 C133.044463,16.9860019 133.158461,17.4639971 133.158461,18.048 C133.158461,18.5920027 133.024463,19.1199974 132.756461,19.632 C132.48846,20.1440026 132.100464,20.599998 131.592461,21 C131.084459,21.400002 130.460465,21.7219988 129.720461,21.966 C128.980458,22.2100012 128.138466,22.332 127.194461,22.332 C126.266457,22.332 125.458465,22.2420009 124.770461,22.062 C124.082458,21.8819991 123.510464,21.6420015 123.054461,21.342 C122.598459,21.0419985 122.258463,20.696002 122.034461,20.304 C121.81046,19.911998 121.698461,19.5040021 121.698461,19.08 C121.698461,18.5039971 121.87246,18.0220019 122.220461,17.634 C122.568463,17.2459981 123.046458,16.9360012 123.654461,16.704 C123.32646,16.5359992 123.066462,16.3120014 122.874461,16.032 C122.68246,15.7519986 122.586461,15.3840023 122.586461,14.928 C122.586461,14.7439991 122.620461,14.554001 122.688461,14.358 C122.756462,14.161999 122.856461,13.968001 122.988461,13.776 C123.120462,13.583999 123.28646,13.4020009 123.486461,13.23 C123.686462,13.0579991 123.92246,12.9040007 124.194461,12.768 C123.570458,12.4319983 123.080463,11.9840028 122.724461,11.424 C122.36846,10.8639972 122.190461,10.2080038 122.190461,9.456 C122.190461,8.84799696 122.31246,8.29800246 122.556461,7.806 C122.800463,7.31399754 123.140459,6.89400174 123.576461,6.546 C124.012464,6.19799826 124.528458,5.93200092 125.124461,5.748 C125.720464,5.56399908 126.370458,5.472 127.074461,5.472 C127.602464,5.472 128.098459,5.52599946 128.562461,5.634 C129.026464,5.74200054 129.45046,5.89999896 129.834461,6.108 L133.374461,6.108 Z" id="Console-blog" fill="#F9FAFC" opacity="0.200000018"></path>
                    <g id="Element-/-Brand-Color" transform="translate(84.000000, 14.000000)" fill="#56C5FF">
                        <rect id="Background" x="0" y="0" width="4" height="4"></rect>
                    </g>
                </g>
            </g>
        </g>
    </g>
</svg>