<?xml version="1.0" encoding="UTF-8"?>
<svg width="151px" height="23px" viewBox="0 0 151 23" version="1.1" xmlns="http://www.w3.org/2000/svg" xmlns:xlink="http://www.w3.org/1999/xlink">
    <!-- Generator: Sketch 49.3 (51167) - http://www.bohemiancoding.com/sketch -->
    <title>Logo</title>
    <desc>Created with Sketch.</desc>
    <defs></defs>
    <g id="Symbols" stroke="none" stroke-width="1" fill="none" fill-rule="evenodd">
        <g id="Component-/-Header" transform="translate(-40.000000, -34.000000)">
            <g id="Header">
                <g id="Logo" transform="translate(40.000000, 34.000000)">
                    <path d="M30.8615384,13.908 C31.0375393,13.908 31.1935378,13.9759993 31.3295384,14.112 L32.6015384,15.492 C31.8975349,16.3640044 31.0315436,17.0319977 30.0035384,17.496 C28.9755333,17.9600023 27.7415456,18.192 26.3015384,18.192 C25.013532,18.192 23.8555436,17.9720022 22.8275384,17.532 C21.7995333,17.0919978 20.9215421,16.4800039 20.1935384,15.696 C19.4655348,14.9119961 18.9075404,13.9760054 18.5195384,12.888 C18.1315365,11.7999946 17.9375384,10.6120064 17.9375384,9.324 C17.9375384,8.01999348 18.1455364,6.82600542 18.5615384,5.742 C18.9775405,4.65799458 19.5635347,3.72400392 20.3195384,2.94 C21.0755422,2.15599608 21.9775332,1.54600218 23.0255384,1.11 C24.0735437,0.67399782 25.2335321,0.456 26.5055384,0.456 C27.7695448,0.456 28.8915335,0.66399792 29.8715384,1.08 C30.8515433,1.49600208 31.685535,2.03999664 32.3735384,2.712 L31.2935384,4.212 C31.2295381,4.30800048 31.1475389,4.39199964 31.0475384,4.464 C30.9475379,4.53600036 30.8095393,4.572 30.6335384,4.572 C30.5135378,4.572 30.3895391,4.53800034 30.2615384,4.47 C30.1335378,4.40199966 29.9935392,4.3180005 29.8415384,4.218 C29.6895377,4.1179995 29.5135394,4.0080006 29.3135384,3.888 C29.1135374,3.7679994 28.8815398,3.6580005 28.6175384,3.558 C28.3535371,3.4579995 28.0475402,3.37400034 27.6995384,3.306 C27.3515367,3.23799966 26.9495407,3.204 26.4935384,3.204 C25.7175346,3.204 25.0075417,3.34199862 24.3635384,3.618 C23.7195352,3.89400138 23.1655408,4.29399738 22.7015384,4.818 C22.2375361,5.34200262 21.8775397,5.98199622 21.6215384,6.738 C21.3655372,7.49400378 21.2375384,8.35599516 21.2375384,9.324 C21.2375384,10.3000049 21.3755371,11.1679962 21.6515384,11.928 C21.9275398,12.6880038 22.3015361,13.3279974 22.7735384,13.848 C23.2455408,14.3680026 23.8015352,14.7659986 24.4415384,15.042 C25.0815416,15.3180014 25.7695348,15.456 26.5055384,15.456 C26.9455406,15.456 27.3435367,15.4320002 27.6995384,15.384 C28.0555402,15.3359998 28.3835369,15.2600005 28.6835384,15.156 C28.9835399,15.0519995 29.2675371,14.9180008 29.5355384,14.754 C29.8035398,14.5899992 30.0695371,14.3880012 30.3335384,14.148 C30.4135388,14.0759996 30.497538,14.0180002 30.5855384,13.974 C30.6735389,13.9299998 30.765538,13.908 30.8615384,13.908 Z M39.1803077,5.496 C40.0923122,5.496 40.9223039,5.64399852 41.6703077,5.94 C42.4183114,6.23600148 43.058305,6.65599728 43.5903077,7.2 C44.1223103,7.74400272 44.5323062,8.40799608 44.8203077,9.192 C45.1083091,9.97600392 45.2523077,10.8519952 45.2523077,11.82 C45.2523077,12.7960049 45.1083091,13.6759961 44.8203077,14.46 C44.5323062,15.2440039 44.1223103,15.9119972 43.5903077,16.464 C43.058305,17.0160028 42.4183114,17.4399985 41.6703077,17.736 C40.9223039,18.0320015 40.0923122,18.18 39.1803077,18.18 C38.2603031,18.18 37.4243114,18.0320015 36.6723077,17.736 C35.9203039,17.4399985 35.2783103,17.0160028 34.7463077,16.464 C34.214305,15.9119972 33.8023091,15.2440039 33.5103077,14.46 C33.2183062,13.6759961 33.0723077,12.7960049 33.0723077,11.82 C33.0723077,10.8519952 33.2183062,9.97600392 33.5103077,9.192 C33.8023091,8.40799608 34.214305,7.74400272 34.7463077,7.2 C35.2783103,6.65599728 35.9203039,6.23600148 36.6723077,5.94 C37.4243114,5.64399852 38.2603031,5.496 39.1803077,5.496 Z M39.1803077,15.9 C40.2043128,15.9 40.9623052,15.5560034 41.4543077,14.868 C41.9463101,14.1799966 42.1923077,13.1720066 42.1923077,11.844 C42.1923077,10.5159934 41.9463101,9.50400348 41.4543077,8.808 C40.9623052,8.11199652 40.2043128,7.764 39.1803077,7.764 C38.1403025,7.764 37.3703102,8.1139965 36.8703077,8.814 C36.3703052,9.5140035 36.1203077,10.5239934 36.1203077,11.844 C36.1203077,13.1640066 36.3703052,14.1699965 36.8703077,14.862 C37.3703102,15.5540035 38.1403025,15.9 39.1803077,15.9 Z M49.9230769,7.2 C50.1710781,6.95199876 50.4330755,6.72200106 50.7090769,6.51 C50.9850783,6.29799894 51.2770754,6.11800074 51.5850769,5.97 C51.8930784,5.82199926 52.2230751,5.70600042 52.5750769,5.622 C52.9270787,5.53799958 53.3110748,5.496 53.7270769,5.496 C54.3990803,5.496 54.9950743,5.60999886 55.5150769,5.838 C56.0350795,6.06600114 56.4690752,6.38599794 56.8170769,6.798 C57.1650786,7.21000206 57.429076,7.70199714 57.6090769,8.274 C57.7890778,8.84600286 57.8790769,9.47599656 57.8790769,10.164 L57.8790769,18 L54.9150769,18 L54.9150769,10.164 C54.9150769,9.41199624 54.7430786,8.83000206 54.3990769,8.418 C54.0550752,8.00599794 53.5310804,7.8 52.8270769,7.8 C52.3150743,7.8 51.8350791,7.91599884 51.3870769,8.148 C50.9390747,8.38000116 50.5150789,8.695998 50.1150769,9.096 L50.1150769,18 L47.1510769,18 L47.1510769,5.688 L48.9630769,5.688 C49.3470788,5.688 49.5990763,5.8679982 49.7190769,6.228 L49.9230769,7.2 Z M67.8298461,8.088 C67.7498457,8.21600064 67.6658466,8.30599974 67.5778461,8.358 C67.4898457,8.41000026 67.3778468,8.436 67.2418461,8.436 C67.0978454,8.436 66.9438469,8.3960004 66.7798461,8.316 C66.6158453,8.2359996 66.4258472,8.1460005 66.2098461,8.046 C65.993845,7.9459995 65.7478475,7.8560004 65.4718461,7.776 C65.1958447,7.6959996 64.869848,7.656 64.4938461,7.656 C63.9098432,7.656 63.4518478,7.77999876 63.1198461,8.028 C62.7878445,8.27600124 62.6218461,8.599998 62.6218461,9 C62.6218461,9.26400132 62.7078453,9.4859991 62.8798461,9.666 C63.051847,9.8460009 63.2798447,10.0039993 63.5638461,10.14 C63.8478475,10.2760007 64.1698443,10.3979995 64.5298461,10.506 C64.8898479,10.6140005 65.2558443,10.7319994 65.6278461,10.86 C65.999848,10.9880006 66.3658443,11.1339992 66.7258461,11.298 C67.0858479,11.4620008 67.4078447,11.6699987 67.6918461,11.922 C67.9758475,12.1740013 68.2038453,12.4759982 68.3758461,12.828 C68.547847,13.1800018 68.6338461,13.6039975 68.6338461,14.1 C68.6338461,14.692003 68.5278472,15.2379975 68.3158461,15.738 C68.1038451,16.2380025 67.7898482,16.6699982 67.3738461,17.034 C66.957844,17.3980018 66.4438492,17.681999 65.8318461,17.886 C65.2198431,18.090001 64.5138501,18.192 63.7138461,18.192 C63.289844,18.192 62.8758481,18.1540004 62.4718461,18.078 C62.0678441,18.0019996 61.679848,17.8960007 61.3078461,17.76 C60.9358443,17.6239993 60.5918477,17.4640009 60.2758461,17.28 C59.9598445,17.0959991 59.6818473,16.8960011 59.4418461,16.68 L60.1258461,15.552 C60.2138466,15.4159993 60.3178455,15.3120004 60.4378461,15.24 C60.5578467,15.1679996 60.7098452,15.132 60.8938461,15.132 C61.077847,15.132 61.2518453,15.1839995 61.4158461,15.288 C61.5798469,15.3920005 61.769845,15.5039994 61.9858461,15.624 C62.2018472,15.7440006 62.4558447,15.8559995 62.7478461,15.96 C63.0398476,16.0640005 63.4098439,16.116 63.8578461,16.116 C64.2098479,16.116 64.5118449,16.0740004 64.7638461,15.99 C65.0158474,15.9059996 65.2238453,15.7960007 65.3878461,15.66 C65.5518469,15.5239993 65.6718457,15.3660009 65.7478461,15.186 C65.8238465,15.0059991 65.8618461,14.820001 65.8618461,14.628 C65.8618461,14.3399986 65.775847,14.1040009 65.6038461,13.92 C65.4318453,13.7359991 65.2038475,13.5760007 64.9198461,13.44 C64.6358447,13.3039993 64.3118479,13.1820005 63.9478461,13.074 C63.5838443,12.9659995 63.211848,12.8480006 62.8318461,12.72 C62.4518442,12.5919994 62.0798479,12.4420009 61.7158461,12.27 C61.3518443,12.0979991 61.0278475,11.8800013 60.7438461,11.616 C60.4598447,11.3519987 60.231847,11.0280019 60.0598461,10.644 C59.8878453,10.2599981 59.8018461,9.79600272 59.8018461,9.252 C59.8018461,8.74799748 59.9018451,8.26800228 60.1018461,7.812 C60.3018471,7.35599772 60.5958442,6.9580017 60.9838461,6.618 C61.3718481,6.2779983 61.8558432,6.00600102 62.4358461,5.802 C63.015849,5.59799898 63.6858423,5.496 64.4458461,5.496 C65.2938504,5.496 66.0658426,5.6359986 66.7618461,5.916 C67.4578496,6.1960014 68.0378438,6.56399772 68.5018461,7.02 L67.8298461,8.088 Z M75.9446153,5.496 C76.8566199,5.496 77.6866116,5.64399852 78.4346153,5.94 C79.1826191,6.23600148 79.8226127,6.65599728 80.3546153,7.2 C80.886618,7.74400272 81.2966139,8.40799608 81.5846153,9.192 C81.8726168,9.97600392 82.0166153,10.8519952 82.0166153,11.82 C82.0166153,12.7960049 81.8726168,13.6759961 81.5846153,14.46 C81.2966139,15.2440039 80.886618,15.9119972 80.3546153,16.464 C79.8226127,17.0160028 79.1826191,17.4399985 78.4346153,17.736 C77.6866116,18.0320015 76.8566199,18.18 75.9446153,18.18 C75.0246107,18.18 74.1886191,18.0320015 73.4366153,17.736 C72.6846116,17.4399985 72.042618,17.0160028 71.5106153,16.464 C70.9786127,15.9119972 70.5666168,15.2440039 70.2746153,14.46 C69.9826139,13.6759961 69.8366153,12.7960049 69.8366153,11.82 C69.8366153,10.8519952 69.9826139,9.97600392 70.2746153,9.192 C70.5666168,8.40799608 70.9786127,7.74400272 71.5106153,7.2 C72.042618,6.65599728 72.6846116,6.23600148 73.4366153,5.94 C74.1886191,5.64399852 75.0246107,5.496 75.9446153,5.496 Z M75.9446153,15.9 C76.9686205,15.9 77.7266129,15.5560034 78.2186153,14.868 C78.7106178,14.1799966 78.9566153,13.1720066 78.9566153,11.844 C78.9566153,10.5159934 78.7106178,9.50400348 78.2186153,8.808 C77.7266129,8.11199652 76.9686205,7.764 75.9446153,7.764 C74.9046101,7.764 74.1346178,8.1139965 73.6346153,8.814 C73.1346128,9.5140035 72.8846153,10.5239934 72.8846153,11.844 C72.8846153,13.1640066 73.1346128,14.1699965 73.6346153,14.862 C74.1346178,15.5540035 74.9046101,15.9 75.9446153,15.9 Z M86.9153846,0.168 L86.9153846,18 L83.9513846,18 L83.9513846,0.168 L86.9153846,0.168 Z M97.4421538,10.428 C97.4421538,10.0439981 97.3881543,9.6820017 97.2801538,9.342 C97.1721532,9.0019983 97.0101549,8.70400128 96.7941538,8.448 C96.5781527,8.19199872 96.3041554,7.99000074 95.9721538,7.842 C95.6401521,7.69399926 95.254156,7.62 94.8141538,7.62 C93.9581495,7.62 93.2841562,7.86399756 92.7921538,8.352 C92.3001513,8.84000244 91.9861545,9.53199552 91.8501538,10.428 L97.4421538,10.428 Z M91.7901538,12.216 C91.838154,12.8480032 91.9501529,13.3939977 92.1261538,13.854 C92.3021547,14.3140023 92.5341523,14.6939985 92.8221538,14.994 C93.1101552,15.2940015 93.4521518,15.5179993 93.8481538,15.666 C94.2441558,15.8140007 94.6821514,15.888 95.1621538,15.888 C95.6421562,15.888 96.056152,15.8320006 96.4041538,15.72 C96.7521555,15.6079994 97.0561525,15.4840007 97.3161538,15.348 C97.5761551,15.2119993 97.8041528,15.0880006 98.0001538,14.976 C98.1961548,14.8639994 98.3861529,14.808 98.5701538,14.808 C98.818155,14.808 99.0021532,14.8999991 99.1221538,15.084 L99.9741538,16.164 C99.6461521,16.5480019 99.2781558,16.8699987 98.8701538,17.13 C98.4621517,17.3900013 98.036156,17.5979992 97.5921538,17.754 C97.1481516,17.9100008 96.6961561,18.0199997 96.2361538,18.084 C95.7761515,18.1480003 95.3301559,18.18 94.8981538,18.18 C94.0421495,18.18 93.2461575,18.0380014 92.5101538,17.754 C91.7741501,17.4699986 91.1341565,17.0500028 90.5901538,16.494 C90.0461511,15.9379972 89.6181553,15.2500041 89.3061538,14.43 C88.9941522,13.6099959 88.8381538,12.6600054 88.8381538,11.58 C88.8381538,10.7399958 88.9741524,9.9500037 89.2461538,9.21 C89.5181551,8.4699963 89.9081512,7.82600274 90.4161538,7.278 C90.9241563,6.72999726 91.5441501,6.2960016 92.2761538,5.976 C93.0081574,5.6559984 93.8341492,5.496 94.7541538,5.496 C95.5301577,5.496 96.2461505,5.61999876 96.9021538,5.868 C97.5581571,6.11600124 98.1221514,6.47799762 98.5941538,6.954 C99.0661561,7.43000238 99.4361524,8.01399654 99.7041538,8.706 C99.9721551,9.39800346 100.106154,10.1879956 100.106154,11.076 C100.106154,11.5240022 100.058154,11.8259992 99.9621538,11.982 C99.8661533,12.1380008 99.6821551,12.216 99.4101538,12.216 L91.7901538,12.216 Z M110.383692,14.808 C110.719694,15.216002 111.08569,15.5039992 111.481692,15.672 C111.877694,15.8400008 112.29569,15.924 112.735692,15.924 C113.191695,15.924 113.60169,15.8420008 113.965692,15.678 C114.329694,15.5139992 114.639691,15.2580017 114.895692,14.91 C115.151694,14.5619983 115.347692,14.1180027 115.483692,13.578 C115.619693,13.0379973 115.687692,12.3920038 115.687692,11.64 C115.687692,10.2879932 115.463694,9.31000302 115.015692,8.706 C114.56769,8.10199698 113.923696,7.8 113.083692,7.8 C112.515689,7.8 112.019694,7.9299987 111.595692,8.19 C111.17169,8.4500013 110.767694,8.81599764 110.383692,9.288 L110.383692,14.808 Z M110.383692,7.2 C110.879695,6.6799974 111.429689,6.26600154 112.033692,5.958 C112.637695,5.64999846 113.327688,5.496 114.103692,5.496 C114.815696,5.496 115.457689,5.6359986 116.029692,5.916 C116.601695,6.1960014 117.08969,6.59799738 117.493692,7.122 C117.897694,7.64600262 118.207691,8.27999628 118.423692,9.024 C118.639693,9.76800372 118.747692,10.6039954 118.747692,11.532 C118.747692,12.532005 118.623693,13.4399959 118.375692,14.256 C118.127691,15.0720041 117.773695,15.7699971 117.313692,16.35 C116.85369,16.9300029 116.299695,17.3799984 115.651692,17.7 C115.003689,18.0200016 114.283696,18.18 113.491692,18.18 C113.10769,18.18 112.759694,18.1420004 112.447692,18.066 C112.135691,17.9899996 111.847694,17.8840007 111.583692,17.748 C111.319691,17.6119993 111.077693,17.446001 110.857692,17.25 C110.637691,17.053999 110.427693,16.8360012 110.227692,16.596 L110.095692,17.424 C110.047692,17.632001 109.965693,17.7799996 109.849692,17.868 C109.733692,17.9560004 109.575693,18 109.375692,18 L107.419692,18 L107.419692,0.168 L110.383692,0.168 L110.383692,7.2 Z M123.670461,0.168 L123.670461,18 L120.706461,18 L120.706461,0.168 L123.670461,0.168 Z M131.713231,5.496 C132.625235,5.496 133.455227,5.64399852 134.203231,5.94 C134.951234,6.23600148 135.591228,6.65599728 136.123231,7.2 C136.655233,7.74400272 137.065229,8.40799608 137.353231,9.192 C137.641232,9.97600392 137.785231,10.8519952 137.785231,11.82 C137.785231,12.7960049 137.641232,13.6759961 137.353231,14.46 C137.065229,15.2440039 136.655233,15.9119972 136.123231,16.464 C135.591228,17.0160028 134.951234,17.4399985 134.203231,17.736 C133.455227,18.0320015 132.625235,18.18 131.713231,18.18 C130.793226,18.18 129.957234,18.0320015 129.205231,17.736 C128.453227,17.4399985 127.811233,17.0160028 127.279231,16.464 C126.747228,15.9119972 126.335232,15.2440039 126.043231,14.46 C125.751229,13.6759961 125.605231,12.7960049 125.605231,11.82 C125.605231,10.8519952 125.751229,9.97600392 126.043231,9.192 C126.335232,8.40799608 126.747228,7.74400272 127.279231,7.2 C127.811233,6.65599728 128.453227,6.23600148 129.205231,5.94 C129.957234,5.64399852 130.793226,5.496 131.713231,5.496 Z M131.713231,15.9 C132.737236,15.9 133.495228,15.5560034 133.987231,14.868 C134.479233,14.1799966 134.725231,13.1720066 134.725231,11.844 C134.725231,10.5159934 134.479233,9.50400348 133.987231,8.808 C133.495228,8.11199652 132.737236,7.764 131.713231,7.764 C130.673225,7.764 129.903233,8.1139965 129.403231,8.814 C128.903228,9.5140035 128.653231,10.5239934 128.653231,11.844 C128.653231,13.1640066 128.903228,14.1699965 129.403231,14.862 C129.903233,15.5540035 130.673225,15.9 131.713231,15.9 Z M144.088,11.544 C144.456002,11.544 144.775999,11.4940005 145.048,11.394 C145.320001,11.2939995 145.545999,11.1560009 145.726,10.98 C145.906001,10.8039991 146.041999,10.5920012 146.134,10.344 C146.226,10.0959988 146.272,9.82400148 146.272,9.528 C146.272,8.91999696 146.090002,8.43800178 145.726,8.082 C145.361998,7.72599822 144.816004,7.548 144.088,7.548 C143.359996,7.548 142.814002,7.72599822 142.45,8.082 C142.085998,8.43800178 141.904,8.91999696 141.904,9.528 C141.904,9.81600144 141.949999,10.0839988 142.042,10.332 C142.134,10.5800012 142.269999,10.7939991 142.45,10.974 C142.630001,11.1540009 142.857999,11.2939995 143.134,11.394 C143.410001,11.4940005 143.727998,11.544 144.088,11.544 Z M147.436,18.552 C147.436,18.3119988 147.364001,18.1160008 147.22,17.964 C147.075999,17.8119992 146.880001,17.6940004 146.632,17.61 C146.383999,17.5259996 146.094002,17.4640002 145.762,17.424 C145.429998,17.3839998 145.078002,17.3540001 144.706,17.334 C144.333998,17.3139999 143.950002,17.2960001 143.554,17.28 C143.157998,17.2639999 142.772002,17.2320002 142.396,17.184 C142.067998,17.3680009 141.802001,17.5839988 141.598,17.832 C141.393999,18.0800012 141.292,18.3679984 141.292,18.696 C141.292,18.9120011 141.345999,19.1139991 141.454,19.302 C141.562,19.4900009 141.733999,19.6519993 141.97,19.788 C142.206001,19.9240007 142.511998,20.0299996 142.888,20.106 C143.264002,20.1820004 143.723997,20.22 144.268,20.22 C144.820003,20.22 145.295998,20.1780004 145.696,20.094 C146.096002,20.0099996 146.425999,19.8940007 146.686,19.746 C146.946001,19.5979993 147.135999,19.422001 147.256,19.218 C147.376,19.013999 147.436,18.7920012 147.436,18.552 Z M150.388,6.108 L150.388,7.212 C150.388,7.56400176 150.176002,7.7799996 149.752,7.86 L148.648,8.064 C148.816001,8.48800212 148.9,8.95199748 148.9,9.456 C148.9,10.064003 148.778001,10.6139975 148.534,11.106 C148.289999,11.5980025 147.952002,12.0159983 147.52,12.36 C147.087998,12.7040017 146.578003,12.9699991 145.99,13.158 C145.401997,13.3460009 144.768003,13.44 144.088,13.44 C143.847999,13.44 143.616001,13.4280001 143.392,13.404 C143.167999,13.3799999 142.948001,13.3480002 142.732,13.308 C142.347998,13.5400012 142.156,13.7999986 142.156,14.088 C142.156,14.3360012 142.269999,14.5179994 142.498,14.634 C142.726001,14.7500006 143.027998,14.8319998 143.404,14.88 C143.780002,14.9280002 144.207997,14.9579999 144.688,14.97 C145.168002,14.9820001 145.659997,15.0079998 146.164,15.048 C146.668002,15.0880002 147.159997,15.1579995 147.64,15.258 C148.120002,15.3580005 148.547998,15.5159989 148.924,15.732 C149.300002,15.9480011 149.601999,16.2419981 149.83,16.614 C150.058001,16.9860019 150.172,17.4639971 150.172,18.048 C150.172,18.5920027 150.038001,19.1199974 149.77,19.632 C149.501999,20.1440026 149.114002,20.599998 148.606,21 C148.097997,21.400002 147.474004,21.7219988 146.734,21.966 C145.993996,22.2100012 145.152005,22.332 144.208,22.332 C143.279995,22.332 142.472003,22.2420009 141.784,22.062 C141.095996,21.8819991 140.524002,21.6420015 140.068,21.342 C139.611998,21.0419985 139.272001,20.696002 139.048,20.304 C138.823999,19.911998 138.712,19.5040021 138.712,19.08 C138.712,18.5039971 138.885998,18.0220019 139.234,17.634 C139.582002,17.2459981 140.059997,16.9360012 140.668,16.704 C140.339998,16.5359992 140.080001,16.3120014 139.888,16.032 C139.695999,15.7519986 139.6,15.3840023 139.6,14.928 C139.6,14.7439991 139.634,14.554001 139.702,14.358 C139.77,14.161999 139.869999,13.968001 140.002,13.776 C140.134001,13.583999 140.299999,13.4020009 140.5,13.23 C140.700001,13.0579991 140.935999,12.9040007 141.208,12.768 C140.583997,12.4319983 140.094002,11.9840028 139.738,11.424 C139.381998,10.8639972 139.204,10.2080038 139.204,9.456 C139.204,8.84799696 139.325999,8.29800246 139.57,7.806 C139.814001,7.31399754 140.153998,6.89400174 140.59,6.546 C141.026002,6.19799826 141.541997,5.93200092 142.138,5.748 C142.734003,5.56399908 143.383996,5.472 144.088,5.472 C144.616003,5.472 145.111998,5.52599946 145.576,5.634 C146.040002,5.74200054 146.463998,5.89999896 146.848,6.108 L150.388,6.108 Z" id="&gt;-Console-blog" fill="#1D1F24"></path>
                    <path d="M10.108,9.312 L10.108,10.512 L0.592,15.48 L0.592,13.368 C0.592,13.2079992 0.6319996,13.0600007 0.712,12.924 C0.7920004,12.7879993 0.92399908,12.6760004 1.108,12.588 L5.464,10.344 C5.84000188,10.1599991 6.25199776,10.0160005 6.7,9.912 C6.25199776,9.80799948 5.84000188,9.66400092 5.464,9.48 L1.108,7.248 C0.92399908,7.15199952 0.7920004,7.03800066 0.712,6.906 C0.6319996,6.77399934 0.592,6.6280008 0.592,6.468 L0.592,4.356 L10.108,9.312 Z" id="&gt;" fill="#56C5FF"></path>
                    <g id="Element-/-Brand-Color" transform="translate(101.000000, 14.000000)" fill="#56C5FF">
                        <rect id="Background" x="0" y="0" width="4" height="4"></rect>
                    </g>
                </g>
            </g>
        </g>
    </g>
</svg>