<?xml version="1.0" standalone="no"?>
<!DOCTYPE svg PUBLIC "-//W3C//DTD SVG 20010904//EN"
 "http://www.w3.org/TR/2001/REC-SVG-20010904/DTD/svg10.dtd">
<svg version="1.0" xmlns="http://www.w3.org/2000/svg"
 width="512.000000pt" height="512.000000pt" viewBox="0 0 512.000000 512.000000"
 preserveAspectRatio="xMidYMid meet">
<metadata>
Created by potrace 1.11, written by Peter Selinger 2001-2013
</metadata>
<g transform="translate(0.000000,512.000000) scale(0.100000,-0.100000)"
fill="#000000" stroke="none">
<path d="M0 2560 l0 -2560 2560 0 2560 0 0 2560 0 2560 -2560 0 -2560 0 0
-2560z m2635 657 l1010 -527 -4 -127 c-2 -71 -6 -131 -10 -135 -10 -11 -2022
-1060 -2026 -1056 -2 2 -5 113 -6 248 -3 270 -1 281 60 333 33 27 901 477
1028 532 43 18 109 41 146 51 37 9 64 20 60 24 -4 4 -48 19 -98 35 -49 16
-187 78 -305 138 -633 322 -806 413 -835 438 -17 15 -37 45 -43 66 -7 22 -13
136 -15 276 -3 212 -1 238 12 234 9 -2 471 -241 1026 -530z"/>
</g>
</svg>
